<?xml version="1.0" encoding="utf-8"?>
<!-- Generator: Adobe Illustrator 19.0.0, SVG Export Plug-In . SVG Version: 6.00 Build 0)  -->
<svg version="1.1" id="Layer_1" xmlns="http://www.w3.org/2000/svg" xmlns:xlink="http://www.w3.org/1999/xlink" x="0px" y="0px"
	 viewBox="0 0 24 24" style="enable-background:new 0 0 24 24;" xml:space="preserve">
<path id="XMLID_1_" d="M22.2,13.8H1.8C0.8,13.8,0,13,0,12l0,0c0-1,0.8-1.8,1.8-1.8h20.4c1,0,1.8,0.8,1.8,1.8v0
	C24,13,23.2,13.8,22.2,13.8z"/>
<path id="XMLID_2_" d="M22.2,6.8H1.8C0.8,6.8,0,6,0,5l0,0c0-1,0.8-1.8,1.8-1.8h20.4C23.2,3.2,24,4,24,5v0C24,6,23.2,6.8,22.2,6.8z"
	/>
<path id="XMLID_3_" d="M22.2,20.8H1.8C0.8,20.8,0,20,0,19l0,0c0-1,0.8-1.8,1.8-1.8h20.4c1,0,1.8,0.8,1.8,1.8v0
	C24,20,23.2,20.8,22.2,20.8z"/>
</svg>
